<?xml version="1.0" standalone="no"?><svg xmlns="http://www.w3.org/2000/svg" viewBox="0 0 1440 320"><path fill="#ff5500" fill-opacity="1" d="M0,96L30,101.3C60,107,120,117,180,128C240,139,300,149,360,154.7C420,160,480,160,540,138.7C600,117,660,75,720,85.3C780,96,840,160,900,160C960,160,1020,96,1080,69.3C1140,43,1200,53,1260,64C1320,75,1380,85,1410,90.7L1440,96L1440,320L1410,320C1380,320,1320,320,1260,320C1200,320,1140,320,1080,320C1020,320,960,320,900,320C840,320,780,320,720,320C660,320,600,320,540,320C480,320,420,320,360,320C300,320,240,320,180,320C120,320,60,320,30,320L0,320Z"></path></svg>